<svg width="589" height="500" viewBox="0 0 589 500" fill="none" xmlns="http://www.w3.org/2000/svg">
<g clip-path="url(#clip0_169_182)">
<path d="M0 385.355C0 400.351 2.63549 411.342 7.90647 418.329C13.1774 425.275 20.7366 428.749 30.5839 428.749C39.8184 428.749 46.7442 426.277 51.3614 421.332C55.9786 416.347 58.2872 409.606 58.2872 401.107V398.655H51.3614V400.494C51.3614 408.135 49.6452 413.773 46.213 417.41C42.7807 421.006 37.7345 422.803 31.0742 422.803C23.556 422.803 17.6312 419.718 13.3 413.549C9.00969 407.379 6.86453 397.981 6.86453 385.355V380.574C6.86453 367.826 8.92797 358.387 13.0549 352.258C17.1818 346.129 23.0656 343.065 30.7065 343.065C37.6119 343.065 42.7807 344.944 46.213 348.703C49.6452 352.462 51.3614 358.04 51.3614 365.436V367.274H58.2872V365.436C58.2872 356.446 55.9377 349.48 51.2388 344.536C46.5807 339.591 39.7366 337.119 30.7065 337.119C21.7172 337.119 14.342 340.552 8.58066 347.416C2.86022 354.24 0 365.293 0 380.574V385.355Z" fill="#335D57"/>
<path d="M84.6298 397.184C84.6298 407.93 86.8976 415.898 91.4331 421.087C95.9686 426.236 102.404 428.81 110.74 428.81C119.116 428.81 125.531 426.236 129.985 421.087C134.479 415.898 136.727 407.93 136.727 397.184V338.345H129.985V397.184C129.985 406.255 128.289 412.793 124.898 416.797C121.547 420.76 116.828 422.742 110.74 422.742C104.611 422.742 99.8503 420.76 96.4589 416.797C93.0675 412.793 91.3718 406.255 91.3718 397.184V338.345H84.6298V397.184Z" fill="#335D57"/>
<path d="M164.602 427.584H207.75V421.516H171.344V338.345H164.602V427.584Z" fill="#335D57"/>
<path d="M219.322 344.413H244.819V427.584H251.56V344.413H276.935V338.345H219.322V344.413Z" fill="#335D57"/>
<path d="M298.803 427.584H305.545V338.345H298.803V427.584Z" fill="#335D57"/>
<path d="M326.065 338.345L353.033 428.013H361.614L388.581 338.345H381.901L359.285 414.468C359.039 415.326 358.712 416.47 358.304 417.9C357.936 419.289 357.691 420.352 357.568 421.087H357.262C357.098 420.352 356.833 419.351 356.465 418.084C356.097 416.817 355.75 415.612 355.423 414.468L333.052 338.345H326.065Z" fill="#335D57"/>
<path d="M393.632 427.584H400.251L422.316 353.055C422.806 351.38 423.235 349.929 423.603 348.703C423.97 347.437 424.379 346.047 424.828 344.536H425.012C425.462 346.047 425.85 347.437 426.177 348.703C426.545 349.929 426.974 351.38 427.464 353.055L449.896 427.584H456.761L429.916 338.345H420.538L393.632 427.584ZM404.48 401.965H445.79L444.074 396.326H406.135L404.48 401.965Z" fill="#335D57"/>
<path d="M465.023 344.413H490.52V427.584H497.262V344.413H522.636V338.345H465.023V344.413Z" fill="#335D57"/>
<path d="M543.891 427.584H589.001V421.516H550.633V384.558H582.382V378.49H550.633V344.413H588.388V338.345H543.891V427.584Z" fill="#335D57"/>
<path d="M169.909 499.387H173.403V481.46L186.948 454.768H183.209L173.28 474.718C172.974 475.331 172.698 475.892 172.453 476.403C172.228 476.914 172.003 477.466 171.779 478.058H171.625C171.38 477.466 171.135 476.914 170.89 476.403C170.665 475.892 170.4 475.331 170.093 474.718L160.195 454.768H156.333L169.909 481.46V499.387Z" fill="#335D57"/>
<path d="M192.262 478.273C192.262 485.995 193.692 491.552 196.552 494.944C199.433 498.315 203.192 500 207.83 500C212.467 500 216.216 498.315 219.077 494.944C221.957 491.552 223.397 485.995 223.397 478.273V475.882C223.397 468.16 221.957 462.613 219.077 459.242C216.216 455.85 212.467 454.155 207.83 454.155C203.192 454.155 199.433 455.85 196.552 459.242C193.692 462.613 192.262 468.16 192.262 475.882V478.273ZM195.786 478.273V475.882C195.786 469.14 196.869 464.349 199.035 461.51C201.221 458.67 204.152 457.25 207.83 457.25C211.487 457.25 214.398 458.67 216.564 461.51C218.75 464.349 219.843 469.14 219.843 475.882V478.273C219.843 485.015 218.75 489.805 216.564 492.645C214.398 495.485 211.487 496.905 207.83 496.905C204.152 496.905 201.221 495.485 199.035 492.645C196.869 489.805 195.786 485.015 195.786 478.273Z" fill="#335D57"/>
<path d="M231.868 478.273C231.868 485.198 233.278 490.551 236.097 494.331C238.916 498.11 242.951 500 248.202 500C251.573 500 254.361 499.397 256.568 498.192C258.795 496.987 260.307 495.914 261.103 494.974V478.211H247.528V481.245H257.763V493.871C256.435 494.954 255.025 495.751 253.534 496.261C252.043 496.772 250.265 497.027 248.202 497.027C244.157 497.027 241.01 495.413 238.763 492.186C236.516 488.937 235.392 484.299 235.392 478.273V475.882C235.392 469.855 236.444 465.248 238.548 462.061C240.653 458.854 243.595 457.25 247.374 457.25C250.766 457.25 253.309 458.149 255.005 459.947C256.721 461.724 257.579 464.094 257.579 467.056V467.945H261.103V467.056C261.083 463.236 259.908 460.131 257.579 457.74C255.25 455.35 251.849 454.155 247.374 454.155C242.451 454.155 238.63 456.045 235.913 459.824C233.216 463.604 231.868 468.956 231.868 475.882V478.273Z" fill="#335D57"/>
<path d="M267.337 499.387H270.769L281.832 462.276C282.077 461.438 282.291 460.713 282.475 460.1C282.659 459.467 282.864 458.772 283.088 458.016H283.211C283.415 458.772 283.599 459.467 283.762 460.1C283.946 460.713 284.161 461.438 284.406 462.276L295.683 499.387H299.208L285.662 454.768H280.943L267.337 499.387ZM272.853 486.639H293.661L292.772 483.727H273.711L272.853 486.639Z" fill="#335D57"/>
<path d="M323.332 499.387H326.549V464.084C326.549 463.389 326.519 462.511 326.457 461.448C326.416 460.366 326.396 459.702 326.396 459.456H326.549C326.549 459.722 326.692 460.386 326.978 461.448C327.285 462.511 327.561 463.389 327.806 464.084L340.524 499.387H343.864L356.49 464.084C356.735 463.369 356.98 462.603 357.225 461.785C357.491 460.968 357.695 460.192 357.838 459.456H357.991C357.93 460.151 357.889 460.927 357.869 461.785C357.869 462.623 357.869 463.389 357.869 464.084V499.387H361.301V454.768H356.582L343.588 491.174C343.343 491.869 343.108 492.563 342.883 493.258C342.679 493.932 342.505 494.647 342.362 495.403H342.24C342.097 494.647 341.913 493.932 341.688 493.258C341.484 492.563 341.259 491.869 341.014 491.174L327.928 454.768H323.332V499.387Z" fill="#335D57"/>
<path d="M372.56 499.387H376.023V482.195L397.812 454.768H393.889L376.023 477.353V454.768H372.56V499.387ZM395.207 499.387H399.375L381.325 473.308L379.057 476.097L395.207 499.387Z" fill="#335D57"/>
<path d="M404.872 499.387H427.642V496.292H408.335V477.905H424.332V474.81H408.335V457.863H427.335V454.768H404.872V499.387Z" fill="#335D57"/>
<path fill-rule="evenodd" clip-rule="evenodd" d="M508.367 311.596H80.3347C80.3347 193.398 176.153 97.5793 294.351 97.5793C412.549 97.5793 508.367 193.398 508.367 311.596Z" fill="#335D57" fill-opacity="0.25"/>
<path d="M323.245 89.7544C329.557 98.2567 351.455 93.198 372.332 78.3734C393.323 63.4683 405.333 44.3352 399.157 35.6384C392.982 26.9416 370.96 31.9745 349.969 46.8796C338.814 54.8002 330.196 63.9148 325.495 72.0227C325.471 72.0443 325.447 72.0671 325.422 72.0911C323.776 73.694 320.233 81.5215 317.75 87.0082C317.142 88.3517 316.598 89.5548 316.16 90.4919L317.811 95.8671C318.769 93.5207 320.232 90.3193 321.762 87.1554C325.073 78.1097 336.416 62.9118 351.218 51.6531C371.11 36.5223 385.744 35.4181 385.744 35.4181C385.744 35.4181 367.899 42.1933 353.924 52.9403C336.117 66.6328 326.869 82.4216 323.245 89.7544Z" fill="#335D57"/>
<path d="M280.464 223.746C271.791 228.217 247.656 219.229 223.16 201.86C196.073 182.653 178.803 160.47 184.586 152.313C190.37 144.156 217.018 153.114 244.106 172.321C252.47 178.252 259.898 184.467 266.001 190.464C266.181 190.64 266.369 190.825 266.562 191.02C273.141 197.559 278.123 203.821 280.997 209.152C284.637 214.617 288.02 220.573 290.221 226.253V229.075C289.272 228.039 288.137 226.79 286.873 225.399L286.867 225.392C286.403 224.881 285.921 224.351 285.425 223.806C270.723 206.581 234.632 170.809 202.985 160.094C225.034 172.641 264.393 205.031 280.464 223.746Z" fill="#335D57"/>
<path d="M297.413 202.855L297.412 202.853C297.367 202.904 297.323 202.955 297.28 203.005C296.978 203.347 296.684 203.682 296.401 204.01V204.086C295.78 204.917 295.603 205.383 295.356 206.029C295.236 206.342 295.101 206.698 294.891 207.158L293.503 202.004C294.071 200.973 294.515 200.128 294.905 199.386C296.711 195.952 297.36 194.719 303.787 187.3C311.325 177.869 324.872 167.047 341.66 157.833C371.1 141.676 399.357 136.582 404.776 146.454C410.194 156.327 390.722 177.429 361.282 193.586C334.051 208.531 307.83 214.011 299.762 206.935C323.23 177.081 363.071 157.02 380.82 150.506C347.606 154.455 312.067 186.325 297.413 202.855Z" fill="#335D57"/>
<path d="M316.63 72.3827C313.343 64.2696 298.705 49.4153 280.746 39.8766C258.673 28.1532 244.052 29.4245 244.052 29.4245C244.052 29.4245 262.756 33.232 278.283 41.5834C296.597 51.4339 307.962 64.2407 313.324 71.3658C306.286 75.1523 287.816 70.9805 268.509 60.726C246.268 48.9129 231.337 33.5009 235.161 26.3023C238.984 19.1038 260.114 22.8445 282.355 34.6576C296.368 42.1003 307.479 50.9716 312.826 58.3173C315.957 61.9968 318.675 65.9619 320.616 70.1257L318.383 76.7058C318.026 75.6717 317.49 74.2052 316.63 72.3827Z" fill="#335D57"/>
<path d="M325.265 11.7619C324.293 33.8037 322.075 84.1346 300.162 139.588C288.535 169.011 286.792 209.356 288.157 243.555C289.755 283.585 291.141 302.651 292.233 311.078C292.254 311.244 292.284 311.406 292.322 311.564H306.072C306.078 311.505 306.083 311.446 306.086 311.386C306.987 295.963 303.708 273.806 301.304 257.565C300.488 252.047 299.772 247.211 299.356 243.555C291.758 199.896 294.926 176.544 308.81 134.193C322.693 91.8429 332.167 10.8448 327.336 0.948598C325.873 -2.04795 325.687 2.18905 325.265 11.7619Z" fill="#335D57"/>
</g>
<defs>
<clipPath id="clip0_169_182">
<rect width="589.001" height="500" fill="white"/>
</clipPath>
</defs>
</svg>
