<svg width="926" height="773" viewBox="0 0 926 773" fill="none" xmlns="http://www.w3.org/2000/svg">
<g clip-path="url(#clip0_112_2)">
<path fill-rule="evenodd" clip-rule="evenodd" d="M804 502.086C804 313.757 651.329 161.086 463 161.086C274.671 161.086 122 313.757 122 502.086H804Z" fill="#335D57" fill-opacity="0.4"/>
<path fill-rule="evenodd" clip-rule="evenodd" d="M512.264 19.7942C511.424 38.8432 510.005 71.0546 503.384 110.625C500.419 104.981 496.6 99.5859 492.296 94.527C483.713 82.7356 465.877 68.4953 443.384 56.5482C407.682 37.5858 373.764 31.581 367.627 43.1362C361.489 54.6914 385.456 79.4308 421.158 98.3932C452.152 114.855 481.8 121.551 493.097 115.471C484.489 104.034 466.246 83.4763 436.848 67.664C411.925 54.2582 381.901 48.1465 381.901 48.1465C381.901 48.1465 405.371 46.1058 440.801 64.9241C469.652 80.2475 493.163 104.116 498.415 117.133C499.672 119.802 500.498 121.993 501.066 123.614C495.222 154.43 486.173 189.035 471.968 224.981C457.33 262.024 452.452 309.852 452.086 355.246C448.96 348.938 445.177 342.607 441.203 336.641C436.588 328.084 428.593 318.033 418.034 307.538C417.724 307.226 417.424 306.93 417.136 306.65C407.34 297.021 395.414 287.044 381.986 277.523C338.505 246.691 295.73 232.312 286.446 245.406C277.161 258.5 304.883 294.108 348.365 324.939C387.687 352.822 426.431 367.248 440.351 360.069C414.554 330.029 351.374 278.034 315.98 257.893C366.818 275.105 424.803 332.603 448.368 360.227C449.147 361.083 449.903 361.916 450.633 362.719L450.638 362.725L450.639 362.725L450.654 362.743L452.071 364.301C452.115 373.674 452.34 382.904 452.698 391.87C455.079 457.399 457.294 487.927 459.094 500.97C459.148 501.357 459.231 501.729 459.341 502.086H481.27C481.38 501.663 481.451 501.218 481.479 500.751C482.925 475.995 477.661 440.429 473.803 414.359L473.803 414.357L473.802 414.356C472.492 405.499 471.343 397.738 470.675 391.87C466.705 369.061 464.567 349.705 464.255 331.626C464.651 330.591 464.936 329.843 465.93 328.512V328.39C466.396 327.85 466.878 327.299 467.375 326.737C467.434 326.67 467.493 326.601 467.554 326.532L467.554 326.535C491.077 300 548.124 248.842 601.44 242.504C572.949 252.96 508.996 285.162 471.326 333.083C484.278 344.441 526.367 335.644 570.078 311.654C617.334 285.719 648.592 251.847 639.894 235.999C631.196 220.151 585.837 228.329 538.581 254.264C511.61 269.066 489.851 286.454 477.757 301.6C468.461 312.333 466.714 314.985 464.327 319.459C465.287 286.969 472.468 257.144 485.85 216.322C491.933 197.765 497.489 174.586 502.195 150.368C503.505 147.416 505.05 144.101 506.641 140.812C511.958 126.291 530.165 101.898 553.922 83.8275C585.852 59.5395 609.344 57.767 609.344 57.767C609.344 57.767 580.7 68.6426 558.265 85.8937C529.683 107.873 514.837 133.217 509.021 144.988C519.152 158.636 554.303 150.516 587.815 126.719C621.51 102.793 640.788 72.0807 630.875 58.1206C620.963 44.1605 585.612 52.2392 551.918 76.165C534.013 88.8791 520.178 103.51 512.632 116.525L512.614 116.541C512.601 116.553 512.588 116.565 512.575 116.578C512.564 116.588 512.553 116.598 512.542 116.608C512.533 116.617 512.523 116.626 512.514 116.636C511.1 118.012 508.815 122.248 506.386 127.239C516.098 69.6757 520.559 12.6174 515.589 2.43676C513.241 -2.37332 512.941 4.42792 512.264 19.7942Z" fill="#335D57"/>
<mask id="path-3-outside-1_112_2" maskUnits="userSpaceOnUse" x="-0.255859" y="521.754" width="926" height="148" fill="black">
<rect fill="white" x="-0.255859" y="521.754" width="926" height="148"/>
<path d="M0.744141 598.633C0.744141 623.633 4.97591 641.569 13.4395 652.441C21.903 663.314 33.8822 668.75 49.377 668.75C64.0905 668.75 75.1582 664.844 82.5801 657.031C90.002 649.154 93.7129 638.379 93.7129 624.707V620.801H85.998V623.926C85.998 636.686 82.9382 646.257 76.8184 652.637C70.7637 658.952 61.7793 662.109 49.8652 662.109C36.9095 662.109 26.7533 657.129 19.3965 647.168C12.0397 637.207 8.36133 621.224 8.36133 599.219V591.895C8.36133 570.02 11.9095 554.134 19.0059 544.238C26.1673 534.342 36.3887 529.395 49.6699 529.395C61.6491 529.395 70.6986 532.585 76.8184 538.965C82.9382 545.345 85.998 554.915 85.998 567.676V570.801H93.7129V567.48C93.7129 553.027 89.9368 541.96 82.3848 534.277C74.8978 526.595 63.9928 522.754 49.6699 522.754C34.8913 522.754 23.0423 528.125 14.123 538.867C5.20378 549.609 0.744141 567.48 0.744141 592.48V598.633Z"/>
<path d="M134.709 620.117C134.709 636.914 138.29 649.251 145.451 657.129C152.613 664.941 162.769 668.848 175.92 668.848C189.201 668.848 199.357 664.941 206.389 657.129C213.485 649.251 217.033 636.914 217.033 620.117V524.707H209.514V620.41C209.514 635.189 206.584 645.833 200.725 652.344C194.93 658.854 186.695 662.109 176.018 662.109C165.275 662.109 156.942 658.854 151.018 652.344C145.093 645.833 142.131 635.189 142.131 620.41V524.707H134.709V620.117Z"/>
<path d="M262.912 666.895H330.295V660.156H270.334V524.707H262.912V666.895Z"/>
<path d="M342.482 531.445H384.377V666.895H391.896V531.445H433.693V524.707H342.482V531.445Z"/>
<path d="M468.928 666.895H476.35V524.707H468.928V666.895Z"/>
<path d="M509.826 524.707L554.26 667.676H563.732L608.166 524.707H600.744L561.975 649.902C561.584 651.204 561.096 652.832 560.51 654.785C559.989 656.738 559.598 658.366 559.338 659.668H558.947C558.557 658.366 558.101 656.803 557.58 654.98C557.059 653.158 556.571 651.53 556.115 650.098L517.639 524.707H509.826Z"/>
<path d="M616.896 666.895H624.318L662.893 542.969C663.609 540.56 664.195 538.542 664.65 536.914C665.171 535.286 665.757 533.366 666.408 531.152H666.701C667.287 533.366 667.808 535.254 668.264 536.816C668.719 538.314 669.338 540.365 670.119 542.969L709.182 666.895H716.896L672.072 524.121H661.721L616.896 666.895ZM633.596 625H700.002L698.049 618.75H635.549L633.596 625Z"/>
<path d="M728.693 531.445H770.588V666.895H778.107V531.445H819.904V524.707H728.693V531.445Z"/>
<path d="M854.357 666.895H925.256V660.156H861.779V596.777H914.709V590.039H861.779V531.445H924.279V524.707H854.357V666.895Z"/>
</mask>
<path d="M0.744141 598.633C0.744141 623.633 4.97591 641.569 13.4395 652.441C21.903 663.314 33.8822 668.75 49.377 668.75C64.0905 668.75 75.1582 664.844 82.5801 657.031C90.002 649.154 93.7129 638.379 93.7129 624.707V620.801H85.998V623.926C85.998 636.686 82.9382 646.257 76.8184 652.637C70.7637 658.952 61.7793 662.109 49.8652 662.109C36.9095 662.109 26.7533 657.129 19.3965 647.168C12.0397 637.207 8.36133 621.224 8.36133 599.219V591.895C8.36133 570.02 11.9095 554.134 19.0059 544.238C26.1673 534.342 36.3887 529.395 49.6699 529.395C61.6491 529.395 70.6986 532.585 76.8184 538.965C82.9382 545.345 85.998 554.915 85.998 567.676V570.801H93.7129V567.48C93.7129 553.027 89.9368 541.96 82.3848 534.277C74.8978 526.595 63.9928 522.754 49.6699 522.754C34.8913 522.754 23.0423 528.125 14.123 538.867C5.20378 549.609 0.744141 567.48 0.744141 592.48V598.633Z" fill="#335D57"/>
<path d="M134.709 620.117C134.709 636.914 138.29 649.251 145.451 657.129C152.613 664.941 162.769 668.848 175.92 668.848C189.201 668.848 199.357 664.941 206.389 657.129C213.485 649.251 217.033 636.914 217.033 620.117V524.707H209.514V620.41C209.514 635.189 206.584 645.833 200.725 652.344C194.93 658.854 186.695 662.109 176.018 662.109C165.275 662.109 156.942 658.854 151.018 652.344C145.093 645.833 142.131 635.189 142.131 620.41V524.707H134.709V620.117Z" fill="#335D57"/>
<path d="M262.912 666.895H330.295V660.156H270.334V524.707H262.912V666.895Z" fill="#335D57"/>
<path d="M342.482 531.445H384.377V666.895H391.896V531.445H433.693V524.707H342.482V531.445Z" fill="#335D57"/>
<path d="M468.928 666.895H476.35V524.707H468.928V666.895Z" fill="#335D57"/>
<path d="M509.826 524.707L554.26 667.676H563.732L608.166 524.707H600.744L561.975 649.902C561.584 651.204 561.096 652.832 560.51 654.785C559.989 656.738 559.598 658.366 559.338 659.668H558.947C558.557 658.366 558.101 656.803 557.58 654.98C557.059 653.158 556.571 651.53 556.115 650.098L517.639 524.707H509.826Z" fill="#335D57"/>
<path d="M616.896 666.895H624.318L662.893 542.969C663.609 540.56 664.195 538.542 664.65 536.914C665.171 535.286 665.757 533.366 666.408 531.152H666.701C667.287 533.366 667.808 535.254 668.264 536.816C668.719 538.314 669.338 540.365 670.119 542.969L709.182 666.895H716.896L672.072 524.121H661.721L616.896 666.895ZM633.596 625H700.002L698.049 618.75H635.549L633.596 625Z" fill="#335D57"/>
<path d="M728.693 531.445H770.588V666.895H778.107V531.445H819.904V524.707H728.693V531.445Z" fill="#335D57"/>
<path d="M854.357 666.895H925.256V660.156H861.779V596.777H914.709V590.039H861.779V531.445H924.279V524.707H854.357V666.895Z" fill="#335D57"/>
<path d="M0.744141 598.633C0.744141 623.633 4.97591 641.569 13.4395 652.441C21.903 663.314 33.8822 668.75 49.377 668.75C64.0905 668.75 75.1582 664.844 82.5801 657.031C90.002 649.154 93.7129 638.379 93.7129 624.707V620.801H85.998V623.926C85.998 636.686 82.9382 646.257 76.8184 652.637C70.7637 658.952 61.7793 662.109 49.8652 662.109C36.9095 662.109 26.7533 657.129 19.3965 647.168C12.0397 637.207 8.36133 621.224 8.36133 599.219V591.895C8.36133 570.02 11.9095 554.134 19.0059 544.238C26.1673 534.342 36.3887 529.395 49.6699 529.395C61.6491 529.395 70.6986 532.585 76.8184 538.965C82.9382 545.345 85.998 554.915 85.998 567.676V570.801H93.7129V567.48C93.7129 553.027 89.9368 541.96 82.3848 534.277C74.8978 526.595 63.9928 522.754 49.6699 522.754C34.8913 522.754 23.0423 528.125 14.123 538.867C5.20378 549.609 0.744141 567.48 0.744141 592.48V598.633Z" stroke="#335D57" stroke-width="0.4" mask="url(#path-3-outside-1_112_2)"/>
<path d="M134.709 620.117C134.709 636.914 138.29 649.251 145.451 657.129C152.613 664.941 162.769 668.848 175.92 668.848C189.201 668.848 199.357 664.941 206.389 657.129C213.485 649.251 217.033 636.914 217.033 620.117V524.707H209.514V620.41C209.514 635.189 206.584 645.833 200.725 652.344C194.93 658.854 186.695 662.109 176.018 662.109C165.275 662.109 156.942 658.854 151.018 652.344C145.093 645.833 142.131 635.189 142.131 620.41V524.707H134.709V620.117Z" stroke="#335D57" stroke-width="0.4" mask="url(#path-3-outside-1_112_2)"/>
<path d="M262.912 666.895H330.295V660.156H270.334V524.707H262.912V666.895Z" stroke="#335D57" stroke-width="0.4" mask="url(#path-3-outside-1_112_2)"/>
<path d="M342.482 531.445H384.377V666.895H391.896V531.445H433.693V524.707H342.482V531.445Z" stroke="#335D57" stroke-width="0.4" mask="url(#path-3-outside-1_112_2)"/>
<path d="M468.928 666.895H476.35V524.707H468.928V666.895Z" stroke="#335D57" stroke-width="0.4" mask="url(#path-3-outside-1_112_2)"/>
<path d="M509.826 524.707L554.26 667.676H563.732L608.166 524.707H600.744L561.975 649.902C561.584 651.204 561.096 652.832 560.51 654.785C559.989 656.738 559.598 658.366 559.338 659.668H558.947C558.557 658.366 558.101 656.803 557.58 654.98C557.059 653.158 556.571 651.53 556.115 650.098L517.639 524.707H509.826Z" stroke="#335D57" stroke-width="0.4" mask="url(#path-3-outside-1_112_2)"/>
<path d="M616.896 666.895H624.318L662.893 542.969C663.609 540.56 664.195 538.542 664.65 536.914C665.171 535.286 665.757 533.366 666.408 531.152H666.701C667.287 533.366 667.808 535.254 668.264 536.816C668.719 538.314 669.338 540.365 670.119 542.969L709.182 666.895H716.896L672.072 524.121H661.721L616.896 666.895ZM633.596 625H700.002L698.049 618.75H635.549L633.596 625Z" stroke="#335D57" stroke-width="0.4" mask="url(#path-3-outside-1_112_2)"/>
<path d="M728.693 531.445H770.588V666.895H778.107V531.445H819.904V524.707H728.693V531.445Z" stroke="#335D57" stroke-width="0.4" mask="url(#path-3-outside-1_112_2)"/>
<path d="M854.357 666.895H925.256V660.156H861.779V596.777H914.709V590.039H861.779V531.445H924.279V524.707H854.357V666.895Z" stroke="#335D57" stroke-width="0.4" mask="url(#path-3-outside-1_112_2)"/>
<mask id="path-4-outside-2_112_2" maskUnits="userSpaceOnUse" x="247.59" y="698.23" width="431" height="75" fill="black">
<rect fill="white" x="247.59" y="698.23" width="431" height="75"/>
<path d="M270.27 771.301H274.176V742.395L295.758 700.207H291.559L274.371 734.191C273.915 735.103 273.541 735.868 273.248 736.486C272.988 737.072 272.695 737.772 272.369 738.586H272.174C271.816 737.772 271.49 737.072 271.197 736.486C270.937 735.868 270.579 735.103 270.123 734.191L252.936 700.207H248.59L270.27 742.395V771.301Z"/>
<path d="M304.908 737.17C304.908 749.8 307.171 758.817 311.695 764.221C316.253 769.592 322.21 772.277 329.566 772.277C336.988 772.277 342.962 769.592 347.486 764.221C352.011 758.817 354.273 749.8 354.273 737.17V734.094C354.273 721.691 352.011 712.788 347.486 707.385C342.962 701.949 336.988 699.23 329.566 699.23C322.21 699.23 316.253 701.949 311.695 707.385C307.171 712.788 304.908 721.691 304.908 734.094V737.17ZM308.863 737.463V733.801C308.863 722.668 310.735 714.709 314.479 709.924C318.255 705.139 323.284 702.746 329.566 702.746C335.882 702.746 340.911 705.139 344.654 709.924C348.398 714.709 350.27 722.668 350.27 733.801V737.414C350.27 748.775 348.398 756.848 344.654 761.633C340.943 766.385 335.914 768.762 329.566 768.762C323.284 768.762 318.255 766.385 314.479 761.633C310.735 756.848 308.863 748.791 308.863 737.463Z"/>
<path d="M368.014 737.17C368.014 748.531 370.243 757.222 374.703 763.244C379.163 769.266 385.494 772.277 393.697 772.277C399.231 772.277 403.756 771.317 407.271 769.396C410.787 767.476 413.18 765.767 414.449 764.27V737.609H392.867V741.027H410.689V763C408.964 764.562 406.702 765.946 403.902 767.15C401.135 768.322 397.75 768.908 393.746 768.908C386.878 768.908 381.523 766.206 377.682 760.803C373.873 755.399 371.969 747.619 371.969 737.463V733.801C371.969 723.417 373.808 715.653 377.486 710.51C381.165 705.334 386.21 702.746 392.623 702.746C398.645 702.746 403.121 704.309 406.051 707.434C409.013 710.559 410.494 714.676 410.494 719.787V721.203H414.449V719.787C414.417 713.7 412.577 708.752 408.932 704.943C405.286 701.135 399.85 699.23 392.623 699.23C384.941 699.23 378.919 702.144 374.557 707.971C370.195 713.765 368.014 722.473 368.014 734.094V737.17Z"/>
<path d="M424.234 771.301H428.092L447.428 709.582C447.786 708.378 448.095 707.368 448.355 706.555C448.616 705.708 448.893 704.732 449.186 703.625H449.332C449.658 704.732 449.934 705.676 450.162 706.457C450.39 707.238 450.699 708.28 451.09 709.582L470.67 771.301H474.674L452.066 699.914H446.793L424.234 771.301ZM432.682 750.451H466.129L465.104 747.131H433.707L432.682 750.451Z"/>
<path d="M513.16 771.301H516.822V710.852C516.822 710.103 516.79 709.126 516.725 707.922C516.66 706.685 516.627 705.887 516.627 705.529H516.822C516.855 705.92 517.034 706.717 517.359 707.922C517.685 709.094 517.994 710.07 518.287 710.852L540.26 771.301H544.02L565.748 710.754C566.041 709.94 566.334 709.077 566.627 708.166C566.92 707.222 567.148 706.327 567.311 705.48H567.506C567.441 706.294 567.392 707.189 567.359 708.166C567.359 709.11 567.359 709.989 567.359 710.803V771.301H571.266V700.207H565.895L543.824 761.73C543.531 762.544 543.238 763.374 542.945 764.221C542.685 765.067 542.473 765.913 542.311 766.76H542.164C542.001 765.913 541.79 765.067 541.529 764.221C541.269 763.374 540.992 762.544 540.699 761.73L518.336 700.207H513.16V771.301Z"/>
<path d="M589.742 771.301H593.648V744.445L629.049 700.207H624.654L593.648 739.025V700.207H589.742V771.301ZM626.949 771.301H631.637L603.512 729.748L600.924 732.873L626.949 771.301Z"/>
<path d="M641.617 771.301H677.408V767.785H645.523V736.34H672.135V732.824H645.523V703.723H676.92V700.207H641.617V771.301Z"/>
</mask>
<path d="M270.27 771.301H274.176V742.395L295.758 700.207H291.559L274.371 734.191C273.915 735.103 273.541 735.868 273.248 736.486C272.988 737.072 272.695 737.772 272.369 738.586H272.174C271.816 737.772 271.49 737.072 271.197 736.486C270.937 735.868 270.579 735.103 270.123 734.191L252.936 700.207H248.59L270.27 742.395V771.301Z" fill="#335D57"/>
<path d="M304.908 737.17C304.908 749.8 307.171 758.817 311.695 764.221C316.253 769.592 322.21 772.277 329.566 772.277C336.988 772.277 342.962 769.592 347.486 764.221C352.011 758.817 354.273 749.8 354.273 737.17V734.094C354.273 721.691 352.011 712.788 347.486 707.385C342.962 701.949 336.988 699.23 329.566 699.23C322.21 699.23 316.253 701.949 311.695 707.385C307.171 712.788 304.908 721.691 304.908 734.094V737.17ZM308.863 737.463V733.801C308.863 722.668 310.735 714.709 314.479 709.924C318.255 705.139 323.284 702.746 329.566 702.746C335.882 702.746 340.911 705.139 344.654 709.924C348.398 714.709 350.27 722.668 350.27 733.801V737.414C350.27 748.775 348.398 756.848 344.654 761.633C340.943 766.385 335.914 768.762 329.566 768.762C323.284 768.762 318.255 766.385 314.479 761.633C310.735 756.848 308.863 748.791 308.863 737.463Z" fill="#335D57"/>
<path d="M368.014 737.17C368.014 748.531 370.243 757.222 374.703 763.244C379.163 769.266 385.494 772.277 393.697 772.277C399.231 772.277 403.756 771.317 407.271 769.396C410.787 767.476 413.18 765.767 414.449 764.27V737.609H392.867V741.027H410.689V763C408.964 764.562 406.702 765.946 403.902 767.15C401.135 768.322 397.75 768.908 393.746 768.908C386.878 768.908 381.523 766.206 377.682 760.803C373.873 755.399 371.969 747.619 371.969 737.463V733.801C371.969 723.417 373.808 715.653 377.486 710.51C381.165 705.334 386.21 702.746 392.623 702.746C398.645 702.746 403.121 704.309 406.051 707.434C409.013 710.559 410.494 714.676 410.494 719.787V721.203H414.449V719.787C414.417 713.7 412.577 708.752 408.932 704.943C405.286 701.135 399.85 699.23 392.623 699.23C384.941 699.23 378.919 702.144 374.557 707.971C370.195 713.765 368.014 722.473 368.014 734.094V737.17Z" fill="#335D57"/>
<path d="M424.234 771.301H428.092L447.428 709.582C447.786 708.378 448.095 707.368 448.355 706.555C448.616 705.708 448.893 704.732 449.186 703.625H449.332C449.658 704.732 449.934 705.676 450.162 706.457C450.39 707.238 450.699 708.28 451.09 709.582L470.67 771.301H474.674L452.066 699.914H446.793L424.234 771.301ZM432.682 750.451H466.129L465.104 747.131H433.707L432.682 750.451Z" fill="#335D57"/>
<path d="M513.16 771.301H516.822V710.852C516.822 710.103 516.79 709.126 516.725 707.922C516.66 706.685 516.627 705.887 516.627 705.529H516.822C516.855 705.92 517.034 706.717 517.359 707.922C517.685 709.094 517.994 710.07 518.287 710.852L540.26 771.301H544.02L565.748 710.754C566.041 709.94 566.334 709.077 566.627 708.166C566.92 707.222 567.148 706.327 567.311 705.48H567.506C567.441 706.294 567.392 707.189 567.359 708.166C567.359 709.11 567.359 709.989 567.359 710.803V771.301H571.266V700.207H565.895L543.824 761.73C543.531 762.544 543.238 763.374 542.945 764.221C542.685 765.067 542.473 765.913 542.311 766.76H542.164C542.001 765.913 541.79 765.067 541.529 764.221C541.269 763.374 540.992 762.544 540.699 761.73L518.336 700.207H513.16V771.301Z" fill="#335D57"/>
<path d="M589.742 771.301H593.648V744.445L629.049 700.207H624.654L593.648 739.025V700.207H589.742V771.301ZM626.949 771.301H631.637L603.512 729.748L600.924 732.873L626.949 771.301Z" fill="#335D57"/>
<path d="M641.617 771.301H677.408V767.785H645.523V736.34H672.135V732.824H645.523V703.723H676.92V700.207H641.617V771.301Z" fill="#335D57"/>
<path d="M270.27 771.301H274.176V742.395L295.758 700.207H291.559L274.371 734.191C273.915 735.103 273.541 735.868 273.248 736.486C272.988 737.072 272.695 737.772 272.369 738.586H272.174C271.816 737.772 271.49 737.072 271.197 736.486C270.937 735.868 270.579 735.103 270.123 734.191L252.936 700.207H248.59L270.27 742.395V771.301Z" stroke="#335D57" stroke-width="0.4" mask="url(#path-4-outside-2_112_2)"/>
<path d="M304.908 737.17C304.908 749.8 307.171 758.817 311.695 764.221C316.253 769.592 322.21 772.277 329.566 772.277C336.988 772.277 342.962 769.592 347.486 764.221C352.011 758.817 354.273 749.8 354.273 737.17V734.094C354.273 721.691 352.011 712.788 347.486 707.385C342.962 701.949 336.988 699.23 329.566 699.23C322.21 699.23 316.253 701.949 311.695 707.385C307.171 712.788 304.908 721.691 304.908 734.094V737.17ZM308.863 737.463V733.801C308.863 722.668 310.735 714.709 314.479 709.924C318.255 705.139 323.284 702.746 329.566 702.746C335.882 702.746 340.911 705.139 344.654 709.924C348.398 714.709 350.27 722.668 350.27 733.801V737.414C350.27 748.775 348.398 756.848 344.654 761.633C340.943 766.385 335.914 768.762 329.566 768.762C323.284 768.762 318.255 766.385 314.479 761.633C310.735 756.848 308.863 748.791 308.863 737.463Z" stroke="#335D57" stroke-width="0.4" mask="url(#path-4-outside-2_112_2)"/>
<path d="M368.014 737.17C368.014 748.531 370.243 757.222 374.703 763.244C379.163 769.266 385.494 772.277 393.697 772.277C399.231 772.277 403.756 771.317 407.271 769.396C410.787 767.476 413.18 765.767 414.449 764.27V737.609H392.867V741.027H410.689V763C408.964 764.562 406.702 765.946 403.902 767.15C401.135 768.322 397.75 768.908 393.746 768.908C386.878 768.908 381.523 766.206 377.682 760.803C373.873 755.399 371.969 747.619 371.969 737.463V733.801C371.969 723.417 373.808 715.653 377.486 710.51C381.165 705.334 386.21 702.746 392.623 702.746C398.645 702.746 403.121 704.309 406.051 707.434C409.013 710.559 410.494 714.676 410.494 719.787V721.203H414.449V719.787C414.417 713.7 412.577 708.752 408.932 704.943C405.286 701.135 399.85 699.23 392.623 699.23C384.941 699.23 378.919 702.144 374.557 707.971C370.195 713.765 368.014 722.473 368.014 734.094V737.17Z" stroke="#335D57" stroke-width="0.4" mask="url(#path-4-outside-2_112_2)"/>
<path d="M424.234 771.301H428.092L447.428 709.582C447.786 708.378 448.095 707.368 448.355 706.555C448.616 705.708 448.893 704.732 449.186 703.625H449.332C449.658 704.732 449.934 705.676 450.162 706.457C450.39 707.238 450.699 708.28 451.09 709.582L470.67 771.301H474.674L452.066 699.914H446.793L424.234 771.301ZM432.682 750.451H466.129L465.104 747.131H433.707L432.682 750.451Z" stroke="#335D57" stroke-width="0.4" mask="url(#path-4-outside-2_112_2)"/>
<path d="M513.16 771.301H516.822V710.852C516.822 710.103 516.79 709.126 516.725 707.922C516.66 706.685 516.627 705.887 516.627 705.529H516.822C516.855 705.92 517.034 706.717 517.359 707.922C517.685 709.094 517.994 710.07 518.287 710.852L540.26 771.301H544.02L565.748 710.754C566.041 709.94 566.334 709.077 566.627 708.166C566.92 707.222 567.148 706.327 567.311 705.48H567.506C567.441 706.294 567.392 707.189 567.359 708.166C567.359 709.11 567.359 709.989 567.359 710.803V771.301H571.266V700.207H565.895L543.824 761.73C543.531 762.544 543.238 763.374 542.945 764.221C542.685 765.067 542.473 765.913 542.311 766.76H542.164C542.001 765.913 541.79 765.067 541.529 764.221C541.269 763.374 540.992 762.544 540.699 761.73L518.336 700.207H513.16V771.301Z" stroke="#335D57" stroke-width="0.4" mask="url(#path-4-outside-2_112_2)"/>
<path d="M589.742 771.301H593.648V744.445L629.049 700.207H624.654L593.648 739.025V700.207H589.742V771.301ZM626.949 771.301H631.637L603.512 729.748L600.924 732.873L626.949 771.301Z" stroke="#335D57" stroke-width="0.4" mask="url(#path-4-outside-2_112_2)"/>
<path d="M641.617 771.301H677.408V767.785H645.523V736.34H672.135V732.824H645.523V703.723H676.92V700.207H641.617V771.301Z" stroke="#335D57" stroke-width="0.4" mask="url(#path-4-outside-2_112_2)"/>
</g>
<defs>
<clipPath id="clip0_112_2">
<rect width="926" height="773" fill="white"/>
</clipPath>
</defs>
</svg>
