<svg width="339" height="50" viewBox="0 0 339 50" fill="none" xmlns="http://www.w3.org/2000/svg">
<path fill-rule="evenodd" clip-rule="evenodd" d="M25.0008 50.0015C38.8083 50.0015 50.0015 38.8083 50.0015 25.0008C50.0015 11.1932 38.8083 0 25.0008 0C11.1932 0 0 11.1932 0 25.0008C0 38.8083 11.1932 50.0015 25.0008 50.0015ZM31.8265 18.115C29.9659 19.4362 28.014 19.8843 27.46 19.1192C27.7831 18.4662 28.6048 17.0662 30.1841 15.8517C31.4258 14.8968 33.0113 14.2949 33.0113 14.2949C33.0113 14.2949 31.7111 14.393 29.9436 15.7374C28.5996 16.7597 27.5765 18.1477 27.3081 18.9441C27.206 19.1565 27.1086 19.3683 27.0325 19.5454C26.777 20.8436 26.4775 22.0822 26.1506 23.0795C25.4071 25.3472 25.0095 27.0018 24.9587 28.8078C25.0997 28.5415 25.1871 28.4039 25.7422 27.7642L25.7447 27.7659C26.419 26.9352 27.6117 25.9869 29.0855 25.178C31.7012 23.7424 34.2119 23.2898 34.6933 24.167C35.1747 25.0442 33.4446 26.9191 30.8289 28.3546C28.4102 29.6821 26.0812 30.1691 25.3635 29.5413C27.4484 26.8879 30.9895 25.1048 32.5668 24.5259C29.6144 24.877 26.4552 27.7111 25.1543 29.1792L25.153 29.1725C25.0165 29.3283 24.9977 29.3775 24.9666 29.4591C24.9631 29.468 24.9596 29.4773 24.9557 29.4872C24.9745 30.4806 25.0927 31.5445 25.3106 32.7963C25.3476 33.1212 25.4112 33.5508 25.4837 34.0411C25.6973 35.4842 25.9887 37.4528 25.9086 38.8231C25.9082 38.8295 25.9077 38.8358 25.907 38.8421H24.6864C24.6827 38.8271 24.6798 38.8116 24.6777 38.7958C24.5807 38.047 24.4575 36.353 24.3155 32.7963C24.2954 32.2927 24.2829 31.7742 24.2807 31.2475C24.2631 31.2281 24.2452 31.2083 24.2269 31.1883L24.2269 31.1882L24.2263 31.1875L24.2259 31.1871L24.1236 31.0746C22.8394 29.56 19.6015 26.3347 16.7653 25.3744C18.7257 26.49 22.2259 29.3709 23.6521 31.0332C22.8775 31.4247 20.7374 30.6263 18.5654 29.0862C16.1587 27.3797 14.6242 25.4087 15.1381 24.6839C15.652 23.9592 18.0197 24.7551 20.4264 26.4616C22.0331 27.6009 23.2511 28.858 23.7304 29.7835C23.9305 30.0866 24.121 30.4059 24.282 30.7249C24.3051 28.2255 24.5767 25.5972 25.3822 23.5588C26.1751 21.5523 26.6778 19.6213 27.001 17.9047C26.9532 17.7717 26.8764 17.5794 26.745 17.3414L26.7409 17.3466C26.3052 16.5998 25.1061 15.4513 23.667 14.6869C21.7059 13.6453 20.4068 13.7582 20.4068 13.7582C20.4068 13.7582 22.0686 14.0965 23.4482 14.8386C25.0782 15.7153 26.0886 16.8556 26.5641 17.488C25.9323 17.8164 24.2985 17.445 22.591 16.5381C20.6148 15.4885 19.2882 14.1191 19.6279 13.4795C19.9676 12.8399 21.845 13.1723 23.8212 14.2219C25.0786 14.8897 26.073 15.687 26.5425 16.3434C26.7681 16.6108 26.9689 16.8949 27.1273 17.1917C27.4884 15.0185 27.5664 13.2498 27.6126 12.2015C27.6501 11.3509 27.6667 10.9744 27.7967 11.2407C28.0743 11.8095 27.8201 15.0219 27.2721 18.2382C27.4227 17.923 27.569 17.6435 27.6558 17.559C27.659 17.5558 27.6622 17.5529 27.6653 17.5502C28.0831 16.8299 28.8487 16.0203 29.8395 15.3167C31.7045 13.9924 33.6612 13.5452 34.2099 14.318C34.7586 15.0907 33.6915 16.7907 31.8265 18.115Z" fill="#335D57"/>
<path d="M59 25.5735C59 29.1716 59.6686 31.8088 61.0058 33.4853C62.3429 35.152 64.251 35.9853 66.7299 35.9853C69.0545 35.9853 70.7979 35.3922 71.9602 34.2059C73.1328 33.0098 73.7191 31.3922 73.7191 29.3529V28.7647H71.9602V29.2059C71.9602 31.0294 71.5282 32.3775 70.6642 33.25C69.8002 34.1127 68.5299 34.5441 66.8533 34.5441C64.9607 34.5441 63.4692 33.8039 62.3789 32.3235C61.2989 30.8431 60.7589 28.5931 60.7589 25.5735V24.4265C60.7589 21.3676 61.2783 19.1078 62.3172 17.6471C63.3561 16.1765 64.8373 15.4412 66.7607 15.4412C68.499 15.4412 69.8002 15.8922 70.6642 16.7941C71.5282 17.6961 71.9602 19.0294 71.9602 20.7941V21.2353H73.7191V20.7941C73.7191 18.6373 73.1277 16.9657 71.9448 15.7794C70.7619 14.5931 69.0339 14 66.7607 14C64.4875 14 62.6258 14.8235 61.1755 16.4706C59.7252 18.1078 59 20.7598 59 24.4265V25.5735Z" fill="#335D56"/>
<path d="M78.7706 28.4118C78.7706 30.9902 79.3414 32.902 80.4832 34.1471C81.6352 35.3824 83.2604 36 85.3587 36C87.4673 36 89.0873 35.3824 90.2188 34.1471C91.3502 32.902 91.9159 30.9902 91.9159 28.4118V14.2941H90.2033V28.4118C90.2033 30.5882 89.7765 32.152 88.9227 33.1029C88.0793 34.0539 86.8913 34.5294 85.3587 34.5294C83.8158 34.5294 82.6175 34.0539 81.7638 33.1029C80.91 32.152 80.4832 30.5882 80.4832 28.4118V14.2941H78.7706V28.4118Z" fill="#335D56"/>
<path d="M97.3839 35.7059H108.277V34.2353H99.0965V14.2941H97.3839V35.7059Z" fill="#335D56"/>
<path d="M109.594 15.7647H116.028V35.7059H117.741V15.7647H124.144V14.2941H109.594V15.7647Z" fill="#335D56"/>
<path d="M128.1 35.7059H129.812V14.2941H128.1V35.7059Z" fill="#335D56"/>
<path d="M133.398 14.2941L140.218 35.8088H142.378L149.197 14.2941H147.485L141.791 32.5294C141.73 32.7353 141.647 33.0098 141.544 33.3529C141.452 33.6863 141.39 33.9412 141.359 34.1176H141.282C141.241 33.9412 141.174 33.701 141.082 33.3971C140.989 33.0931 140.902 32.8039 140.819 32.5294L135.172 14.2941H133.398Z" fill="#335D56"/>
<path d="M149.82 35.7059H151.502L157.072 17.8529C157.195 17.451 157.303 17.1029 157.396 16.8088C157.489 16.5049 157.591 16.1716 157.705 15.8088H157.751C157.864 16.1716 157.962 16.5049 158.044 16.8088C158.137 17.1029 158.245 17.451 158.368 17.8529L164.015 35.7059H165.774L158.985 14.2941H156.625L149.82 35.7059ZM152.567 29.5735H162.997L162.549 28.2059H152.983L152.567 29.5735Z" fill="#335D56"/>
<path d="M166.274 15.7647H172.708V35.7059H174.42V15.7647H180.823V14.2941H166.274V15.7647Z" fill="#335D56"/>
<path d="M184.625 35.7059H196.011V34.2353H186.338V25.3824H194.345V23.9265H186.338V15.7647H195.857V14.2941H184.625V35.7059Z" fill="#335D56"/>
<path d="M211.607 35.7059H213.32V27.0882L220.124 14.2941H218.272L213.289 23.8676C213.134 24.1618 212.996 24.4314 212.872 24.6765C212.749 24.9216 212.63 25.1912 212.517 25.4853H212.44C212.317 25.1912 212.193 24.9216 212.07 24.6765C211.957 24.4314 211.823 24.1618 211.669 23.8676L206.685 14.2941H204.787L211.607 27.0882V35.7059Z" fill="#335D56"/>
<path d="M222.768 25.5735C222.768 29.2794 223.483 31.9461 224.913 33.5735C226.353 35.1912 228.235 36 230.56 36C232.895 36 234.777 35.1912 236.207 33.5735C237.647 31.9461 238.367 29.2794 238.367 25.5735V24.4265C238.367 20.7206 237.647 18.0588 236.207 16.4412C234.777 14.8137 232.895 14 230.56 14C228.235 14 226.353 14.8137 224.913 16.4412C223.483 18.0588 222.768 20.7206 222.768 24.4265V25.5735ZM224.527 25.5735V24.4265C224.527 21.1716 225.072 18.8676 226.163 17.5147C227.253 16.152 228.719 15.4706 230.56 15.4706C232.401 15.4706 233.867 16.152 234.957 17.5147C236.047 18.8676 236.592 21.1716 236.592 24.4265V25.5735C236.592 28.8284 236.047 31.1373 234.957 32.5C233.867 33.8529 232.401 34.5294 230.56 34.5294C228.719 34.5294 227.253 33.8529 226.163 32.5C225.072 31.1373 224.527 28.8284 224.527 25.5735Z" fill="#335D56"/>
<path d="M242.616 25.5735C242.616 28.8971 243.32 31.4657 244.73 33.2794C246.139 35.0931 248.165 36 250.809 36C252.495 36 253.889 35.7108 254.99 35.1324C256.101 34.5539 256.857 34.0441 257.258 33.6029V25.5588H250.469V26.9853H255.592V33.0735C254.933 33.5931 254.229 33.9755 253.478 34.2206C252.727 34.4657 251.837 34.5882 250.809 34.5882C248.772 34.5882 247.188 33.8137 246.056 32.2647C244.935 30.7059 244.375 28.4755 244.375 25.5735V24.4265C244.375 21.5245 244.899 19.3088 245.948 17.7794C247.008 16.2402 248.484 15.4706 250.377 15.4706C252.084 15.4706 253.365 15.902 254.218 16.7647C255.072 17.6176 255.499 18.7549 255.499 20.1765V20.6176H257.258V20.1765C257.248 18.3431 256.661 16.8578 255.499 15.7206C254.337 14.5735 252.629 14 250.377 14C247.918 14 246.01 14.9069 244.652 16.7206C243.295 18.5343 242.616 21.1029 242.616 24.4265V25.5735Z" fill="#335D56"/>
<path d="M260.396 35.7059H262.078L267.648 17.8529C267.771 17.451 267.879 17.1029 267.972 16.8088C268.064 16.5049 268.167 16.1716 268.28 15.8088H268.327C268.44 16.1716 268.537 16.5049 268.62 16.8088C268.712 17.1029 268.82 17.451 268.944 17.8529L274.591 35.7059H276.35L269.561 14.2941H267.2L260.396 35.7059ZM263.142 29.5735H273.572L273.125 28.2059H263.559L263.142 29.5735Z" fill="#335D56"/>
<path d="M286.807 35.7059H288.396V18.7353C288.396 18.402 288.381 17.9755 288.35 17.4559C288.33 16.9265 288.319 16.6078 288.319 16.5H288.396C288.396 16.6176 288.468 16.9363 288.612 17.4559C288.767 17.9755 288.906 18.402 289.029 18.7353L295.432 35.7059H297.098L303.455 18.7353C303.578 18.3922 303.702 18.0245 303.825 17.6324C303.959 17.2304 304.062 16.8529 304.134 16.5H304.211C304.18 16.8333 304.16 17.2059 304.149 17.6176C304.149 18.0294 304.149 18.402 304.149 18.7353V35.7059H305.846V14.2941H303.501L296.959 31.8088C296.836 32.1422 296.718 32.4755 296.605 32.8088C296.502 33.1324 296.414 33.4706 296.342 33.8235H296.281C296.209 33.4706 296.116 33.1324 296.003 32.8088C295.9 32.4755 295.787 32.1422 295.663 31.8088L289.075 14.2941H286.807V35.7059Z" fill="#335D56"/>
<path d="M311.469 35.7059H313.181V27.4265L324.074 14.2941H322.161L313.181 25.1471V14.2941H311.469V35.7059ZM322.824 35.7059H324.861L315.82 23.2059L314.693 24.5294L322.824 35.7059Z" fill="#335D56"/>
<path d="M327.614 35.7059H339V34.2353H329.326V25.3824H337.334V23.9265H329.326V15.7647H338.846V14.2941H327.614V35.7059Z" fill="#335D56"/>
</svg>
