<svg width="601" height="501" viewBox="0 0 601 501" fill="none" xmlns="http://www.w3.org/2000/svg">
<g clip-path="url(#clip0_130_100)">
<path fill-rule="evenodd" clip-rule="evenodd" d="M521.418 325.776C521.418 203.7 422.456 104.738 300.381 104.738C178.305 104.738 79.3438 203.7 79.3438 325.776H521.418Z" fill="#DFA364"/>
<path fill-rule="evenodd" clip-rule="evenodd" d="M332.313 13.1523C331.769 25.4998 330.848 46.3792 326.557 72.0289C324.635 68.3699 322.159 64.8721 319.369 61.5925C313.805 53.9493 302.244 44.7186 287.663 36.9745C264.521 24.683 242.536 20.7907 238.558 28.2808C234.58 35.7709 250.115 51.807 273.257 64.0985C293.347 74.7689 312.565 79.1095 319.888 75.1687C314.308 67.7551 302.483 54.4292 283.427 44.1795C267.272 35.4898 247.81 31.5282 247.81 31.5282C247.81 31.5282 263.023 30.2054 285.99 42.4035C304.691 52.3363 319.931 67.8085 323.335 76.2458C324.15 77.9768 324.686 79.3981 325.054 80.4491C321.266 100.424 315.401 122.855 306.193 146.155C296.705 170.166 293.542 201.168 293.305 230.593C291.279 226.503 288.827 222.399 286.251 218.532C283.259 212.986 278.077 206.471 271.233 199.668C271.032 199.466 270.837 199.274 270.65 199.092C264.3 192.85 256.57 186.383 247.866 180.212C219.682 160.227 191.955 150.906 185.937 159.394C179.918 167.881 197.888 190.962 226.073 210.947C251.561 229.021 276.675 238.372 285.698 233.718C268.976 214.246 228.023 180.543 205.081 167.488C238.032 178.644 275.615 215.909 290.892 233.817L291.731 234.74L292.367 235.44L292.368 235.441L293.296 236.462C293.324 242.538 293.47 248.521 293.702 254.333C295.246 296.809 296.681 316.597 297.848 325.052C297.883 325.302 297.936 325.543 298.008 325.774H312.222C312.294 325.5 312.34 325.212 312.358 324.91C313.295 308.863 309.883 285.809 307.382 268.91C306.532 263.168 305.788 258.137 305.355 254.333C302.782 239.549 301.395 227.004 301.194 215.286L301.194 215.285C301.451 214.613 301.635 214.128 302.279 213.265V213.184C302.607 212.805 302.947 212.417 303.298 212.021L303.333 211.98L303.333 211.981C318.581 194.781 355.559 161.621 390.117 157.512C371.65 164.29 330.195 185.163 305.777 216.226C314.172 223.589 341.455 217.888 369.79 202.337C400.421 185.525 420.682 163.569 415.044 153.297C409.406 143.024 380.004 148.325 349.373 165.136C331.891 174.731 317.786 186.001 309.947 195.819C303.919 202.779 302.788 204.497 301.24 207.399C301.862 186.337 306.516 167.004 315.191 140.542C319.134 128.514 322.735 113.491 325.785 97.7933C326.634 95.8814 327.635 93.7338 328.666 91.6026C332.11 82.1909 343.913 66.3757 359.315 54.6599C380.013 38.9163 395.24 37.7674 395.24 37.7674C395.24 37.7674 376.673 44.8169 362.131 55.9992C343.603 70.2468 333.98 86.6757 330.209 94.3051C336.776 103.153 359.562 97.8893 381.285 82.4639C403.126 66.9552 415.622 47.0472 409.197 37.9982C402.771 28.9492 379.857 34.1859 358.016 49.6946C346.41 57.936 337.442 67.4196 332.551 75.8558C332.526 75.8786 332.5 75.9026 332.474 75.9279C331.558 76.8201 330.077 79.5658 328.502 82.8006C334.798 45.4873 337.69 8.50039 334.468 1.90108C332.946 -1.21683 332.752 3.19176 332.313 13.1523Z" fill="#335D57"/>
<path d="M0.744141 388.357C0.744141 404.562 3.48719 416.188 8.97328 423.236C14.4594 430.283 22.2243 433.807 32.2681 433.807C41.8054 433.807 48.9796 431.275 53.7904 426.211C58.6013 421.105 61.0068 414.12 61.0068 405.258V402.726H56.006V404.752C56.006 413.023 54.0225 419.227 50.0557 423.362C46.131 427.456 40.3073 429.503 32.5846 429.503C24.1866 429.503 17.6033 426.274 12.8346 419.817C8.06596 413.361 5.68162 403 5.68162 388.737V383.989C5.68162 369.81 7.98156 359.513 12.5814 353.098C17.2235 346.684 23.849 343.476 32.458 343.476C40.2229 343.476 46.0888 345.544 50.0557 349.68C54.0225 353.816 56.006 360.019 56.006 368.29V370.316H61.0068V368.164C61.0068 358.795 58.5591 351.621 53.6638 346.641C48.8108 341.662 41.7421 339.172 32.458 339.172C22.8784 339.172 15.1979 342.653 9.41639 349.617C3.63489 356.58 0.744141 368.164 0.744141 384.369V388.357Z" fill="#335D57"/>
<path d="M87.5806 402.283C87.5806 413.171 89.9016 421.168 94.5437 426.274C99.1858 431.338 105.769 433.87 114.294 433.87C122.903 433.87 129.486 431.338 134.044 426.274C138.643 421.168 140.943 413.171 140.943 402.283V340.438H136.069V402.473C136.069 412.053 134.17 418.952 130.372 423.172C126.616 427.392 121.278 429.503 114.357 429.503C107.394 429.503 101.992 427.392 98.1518 423.172C94.3116 418.952 92.3914 412.053 92.3914 402.473V340.438H87.5806V402.283Z" fill="#335D57"/>
<path d="M170.682 432.604H214.36V428.236H175.493V340.438H170.682V432.604Z" fill="#335D57"/>
<path d="M222.26 344.806H249.416V432.604H254.29V344.806H281.383V340.438H222.26V344.806Z" fill="#335D57"/>
<path d="M304.222 432.604H309.033V340.438H304.222V432.604Z" fill="#335D57"/>
<path d="M330.733 340.438L359.535 433.111H365.675L394.477 340.438H389.666L364.535 421.59C364.282 422.434 363.966 423.489 363.586 424.755C363.248 426.021 362.995 427.076 362.826 427.92H362.573C362.32 427.076 362.024 426.063 361.687 424.882C361.349 423.7 361.033 422.645 360.737 421.716L335.797 340.438H330.733Z" fill="#335D57"/>
<path d="M400.136 432.604H404.947L429.951 352.275C430.415 350.714 430.795 349.406 431.09 348.351C431.428 347.296 431.808 346.051 432.23 344.616H432.419C432.799 346.051 433.137 347.274 433.432 348.287C433.728 349.258 434.129 350.587 434.635 352.275L459.955 432.604H464.956L435.901 340.058H429.191L400.136 432.604ZM410.96 405.448H454.005L452.739 401.397H412.226L410.96 405.448Z" fill="#335D57"/>
<path d="M472.603 344.806H499.759V432.604H504.633V344.806H531.726V340.438H472.603V344.806Z" fill="#335D57"/>
<path d="M554.059 432.604H600.015V428.236H558.87V387.154H593.179V382.786H558.87V344.806H599.382V340.438H554.059V432.604Z" fill="#335D57"/>
<path d="M175.451 500.279H177.983V481.542L191.973 454.196H189.251L178.11 476.224C177.815 476.815 177.572 477.311 177.382 477.712C177.213 478.092 177.023 478.545 176.812 479.073H176.686C176.454 478.545 176.243 478.092 176.053 477.712C175.884 477.311 175.652 476.815 175.356 476.224L164.215 454.196H161.398L175.451 481.542V500.279Z" fill="#335D57"/>
<path d="M197.904 478.155C197.904 486.342 199.371 492.187 202.304 495.689C205.258 499.171 209.119 500.912 213.888 500.912C218.699 500.912 222.57 499.171 225.503 495.689C228.436 492.187 229.903 486.342 229.903 478.155V476.161C229.903 468.122 228.436 462.351 225.503 458.848C222.57 455.324 218.699 453.562 213.888 453.562C209.119 453.562 205.258 455.324 202.304 458.848C199.371 462.351 197.904 468.122 197.904 476.161V478.155ZM200.468 478.345V475.971C200.468 468.755 201.681 463.596 204.108 460.494C206.555 457.392 209.815 455.841 213.888 455.841C217.981 455.841 221.241 457.392 223.668 460.494C226.094 463.596 227.308 468.755 227.308 475.971V478.313C227.308 485.677 226.094 490.91 223.668 494.012C221.262 497.093 218.002 498.633 213.888 498.633C209.815 498.633 206.555 497.093 204.108 494.012C201.681 490.91 200.468 485.688 200.468 478.345Z" fill="#335D57"/>
<path d="M238.809 478.155C238.809 485.519 240.255 491.153 243.145 495.056C246.036 498.96 250.14 500.912 255.458 500.912C259.045 500.912 261.978 500.289 264.256 499.044C266.535 497.799 268.086 496.692 268.909 495.721V478.44H254.919V480.655H266.472V494.898C265.354 495.911 263.887 496.808 262.072 497.588C260.279 498.348 258.085 498.728 255.489 498.728C251.037 498.728 247.566 496.976 245.076 493.474C242.607 489.971 241.373 484.928 241.373 478.345V475.971C241.373 469.24 242.565 464.208 244.95 460.874C247.334 457.519 250.604 455.841 254.761 455.841C258.665 455.841 261.566 456.854 263.465 458.88C265.385 460.905 266.345 463.575 266.345 466.887V467.805H268.909V466.887C268.888 462.942 267.696 459.734 265.332 457.266C262.969 454.797 259.445 453.562 254.761 453.562C249.782 453.562 245.878 455.451 243.05 459.228C240.223 462.984 238.809 468.628 238.809 476.161V478.155Z" fill="#335D57"/>
<path d="M275.252 500.279H277.752L290.286 460.272C290.518 459.492 290.718 458.838 290.887 458.31C291.056 457.761 291.235 457.128 291.425 456.411H291.52C291.731 457.128 291.91 457.74 292.058 458.247C292.206 458.753 292.406 459.428 292.66 460.272L305.351 500.279H307.947L293.293 454.006H289.874L275.252 500.279ZM280.727 486.764H302.408L301.743 484.612H281.392L280.727 486.764Z" fill="#335D57"/>
<path d="M332.894 500.279H335.268V461.095C335.268 460.61 335.246 459.977 335.204 459.196C335.162 458.394 335.141 457.878 335.141 457.645H335.268C335.289 457.899 335.405 458.416 335.616 459.196C335.827 459.956 336.027 460.589 336.217 461.095L350.46 500.279H352.897L366.981 461.032C367.171 460.505 367.361 459.945 367.551 459.355C367.741 458.743 367.889 458.162 367.994 457.614H368.121C368.079 458.141 368.047 458.722 368.026 459.355C368.026 459.966 368.026 460.536 368.026 461.064V500.279H370.558V454.196H367.076L352.77 494.075C352.58 494.603 352.39 495.141 352.201 495.689C352.032 496.238 351.895 496.787 351.789 497.335H351.694C351.589 496.787 351.451 496.238 351.283 495.689C351.114 495.141 350.935 494.603 350.745 494.075L336.249 454.196H332.894V500.279Z" fill="#335D57"/>
<path d="M382.534 500.279H385.066V482.871L408.013 454.196H405.165L385.066 479.358V454.196H382.534V500.279ZM406.652 500.279H409.691L391.46 473.344L389.782 475.37L406.652 500.279Z" fill="#335D57"/>
<path d="M416.16 500.279H439.36V498H418.692V477.617H435.942V475.338H418.692V456.474H439.043V454.196H416.16V500.279Z" fill="#335D57"/>
</g>
<defs>
<clipPath id="clip0_130_100">
<rect width="601" height="501" fill="white"/>
</clipPath>
</defs>
</svg>
