<svg width="517" height="754" viewBox="0 0 517 754" fill="none" xmlns="http://www.w3.org/2000/svg">
<path fill-rule="evenodd" clip-rule="evenodd" d="M325.117 208.78C339.799 228.556 390.734 216.789 439.294 182.307C488.119 147.638 516.055 103.133 501.691 82.9045C487.326 62.6755 436.101 74.3821 387.277 109.052C361.331 127.475 341.284 148.676 330.349 167.535C330.294 167.586 330.238 167.639 330.181 167.694C326.351 171.423 318.111 189.63 312.335 202.392L312.335 202.393C310.921 205.517 309.655 208.316 308.637 210.495L312.477 222.998C314.706 217.539 318.11 210.09 321.669 202.729C329.374 181.688 355.756 146.341 390.182 120.155C436.451 84.9599 470.492 82.3916 470.492 82.3916C470.492 82.3916 428.984 98.1508 396.476 123.149C355.057 154.998 333.545 191.724 325.117 208.78Z" fill="white"/>
<path fill-rule="evenodd" clip-rule="evenodd" d="M225.609 520.443C205.437 530.843 149.297 509.938 92.3197 469.537C29.313 424.861 -10.8578 373.262 2.5958 354.289C16.0494 335.315 78.0327 356.151 141.039 400.828C160.494 414.623 177.772 429.077 191.966 443.028C192.387 443.437 192.824 443.868 193.276 444.323C208.578 459.533 220.164 474.098 226.85 486.498C235.316 499.208 243.185 513.064 248.305 526.276V532.838C246.1 530.431 243.462 527.528 240.523 524.295L240.517 524.288L240.512 524.282C239.435 523.097 238.318 521.867 237.167 520.601C202.982 480.546 119.015 397.312 45.391 372.385C96.678 401.57 188.229 476.913 225.609 520.443Z" fill="white"/>
<path fill-rule="evenodd" clip-rule="evenodd" d="M265.028 471.845C265.028 471.843 265.028 471.841 265.027 471.839C264.902 471.982 264.781 472.121 264.664 472.257C263.981 473.031 263.317 473.789 262.674 474.533V474.707C261.232 476.641 260.818 477.724 260.244 479.228C259.966 479.956 259.65 480.784 259.162 481.854L255.934 469.865C257.255 467.466 258.288 465.502 259.195 463.777L259.195 463.777C263.396 455.789 264.905 452.921 279.855 435.662C297.388 413.727 328.899 388.554 367.95 367.122C436.426 329.541 502.154 317.691 514.758 340.655C527.361 363.619 482.068 412.702 413.591 450.284C350.25 485.047 289.261 497.793 270.494 481.335C325.08 411.894 417.751 365.232 459.036 350.08C381.779 359.265 299.115 433.396 265.028 471.845Z" fill="white"/>
<path fill-rule="evenodd" clip-rule="evenodd" d="M309.73 168.362C302.078 149.489 268.033 114.944 226.264 92.7591C174.923 65.4903 140.914 68.4475 140.914 68.4475C140.914 68.4475 184.42 77.3037 220.536 96.7294C263.135 119.643 289.57 149.432 302.043 166.005C285.672 174.813 242.712 165.109 197.803 141.257C146.069 113.779 111.34 77.9305 120.233 61.1864C129.126 44.4423 178.275 53.1435 230.009 80.6211C262.603 97.933 288.448 118.568 300.885 135.654C308.168 144.213 314.491 153.436 319.004 163.121L313.811 178.426C312.98 176.019 311.731 172.605 309.73 168.362Z" fill="white"/>
<path d="M271.422 324.685C344.53 139.68 323.394 -20.8125 334.631 2.20646C345.868 25.2254 323.831 213.629 291.538 312.137C259.244 410.645 251.874 464.962 269.548 566.516C273.366 600.051 285.203 676.147 285.203 724.291C285.203 730.186 285.009 735.052 284.682 739.064C283.725 750.779 267.185 759.654 263.164 748.61C256.112 729.244 248.068 681 243.498 566.515C240.323 486.967 244.378 393.124 271.422 324.685Z" fill="white"/>
</svg>
