<svg width="1309" height="1309" viewBox="0 0 1309 1309" fill="none" xmlns="http://www.w3.org/2000/svg">
<path fill-rule="evenodd" clip-rule="evenodd" d="M654.5 1309C1015.97 1309 1309 1015.97 1309 654.5C1309 293.031 1015.97 0 654.5 0C293.031 0 0 293.031 0 654.5C0 1015.97 293.031 1309 654.5 1309ZM832.363 474.453C783.805 508.934 732.867 520.703 718.188 500.926C726.613 483.871 748.129 447.145 789.547 415.293C822.055 390.297 863.562 374.535 863.562 374.535C863.562 374.535 829.52 377.105 783.254 412.301C748.824 438.484 722.445 473.832 714.738 494.875C712.43 499.648 710.188 504.457 708.289 508.738C701.473 543.824 693.422 577.402 684.609 604.285C665.219 663.438 654.812 706.656 653.422 753.738C656.887 747.25 659.418 743.406 672.926 727.812C690.461 705.875 721.973 680.703 761.02 659.273C829.496 621.691 895.227 609.84 907.828 632.805C920.434 655.77 875.141 704.852 806.664 742.434C743.32 777.195 682.332 789.941 663.566 773.484C718.152 704.043 810.824 657.379 852.105 642.23C774.852 651.414 692.188 725.543 658.102 763.996C657.973 764.129 657.852 764.27 657.734 764.406C657.051 765.18 656.391 765.938 655.746 766.684V766.855C654.305 768.789 653.891 769.871 653.316 771.379C653.77 797.574 656.867 825.617 662.621 858.664C663.59 867.168 665.254 878.418 667.152 891.254L667.164 891.301C672.75 929.078 680.371 980.582 678.273 1016.44C678.266 1016.59 678.23 1016.72 678.164 1016.86H646.199C643.637 997.852 640.359 953.609 636.57 858.664C636.051 845.672 635.723 832.301 635.66 818.719C635.473 818.512 635.285 818.305 635.098 818.098L634.641 817.594L633.586 816.438L630.238 812.75C596.051 772.695 512.086 689.461 438.461 664.535C489.75 693.719 581.301 769.062 618.68 812.59C598.508 822.992 542.367 802.086 485.391 761.684C422.383 717.008 382.211 665.41 395.668 646.438C409.121 627.465 471.102 648.301 534.109 692.977C553.566 706.77 570.844 721.227 585.035 735.176L585.621 735.75L586.348 736.473C601.648 751.68 613.234 766.246 619.922 778.648C625.676 787.289 631.156 796.457 635.684 805.594C636.215 739.816 643.281 670.512 664.492 616.832C685.078 564.742 698.191 514.598 706.66 469.941C705.836 467.582 704.633 464.395 702.801 460.508C695.148 441.637 661.102 407.09 619.336 384.906C567.992 357.637 533.984 360.594 533.984 360.594C533.984 360.594 577.488 369.449 613.605 388.875C656.203 411.789 682.641 441.578 695.113 458.152C678.742 466.961 635.781 457.258 590.875 433.402C539.141 405.926 504.41 370.078 513.305 353.332C522.195 336.59 571.344 345.289 623.078 372.77C655.672 390.082 681.52 410.715 693.957 427.801C700.191 435.129 705.719 442.945 710.016 451.121C719.609 393.785 721.668 347.109 722.883 319.508V319.473C723.867 297.23 724.301 287.391 727.703 294.355C734.906 309.109 728.438 391.801 714.363 475.219C717.887 467.98 721.199 461.836 723.25 459.84L723.418 459.68C734.355 440.82 754.402 419.621 780.348 401.199C829.172 366.527 880.395 354.82 894.762 375.051C909.125 395.277 881.188 439.781 832.363 474.453Z" fill="#335D57"/>
</svg>
